<mxfile host="app.diagrams.net" modified="2023-10-23T05:14:51.505Z" agent="Mozilla/5.0 (Macintosh; Intel Mac OS X 10_15_7) AppleWebKit/537.36 (KHTML, like Gecko) Chrome/117.0.0.0 Safari/537.36" etag="qLRu9LkG4zUMMGvzaYjg" version="22.0.6" type="github">
  <diagram id="C5RBs43oDa-KdzZeNtuy" name="Page-1">
    <mxGraphModel dx="1194" dy="531" grid="1" gridSize="10" guides="1" tooltips="1" connect="1" arrows="1" fold="1" page="1" pageScale="1" pageWidth="827" pageHeight="1169" math="0" shadow="0">
      <root>
        <mxCell id="WIyWlLk6GJQsqaUBKTNV-0" />
        <mxCell id="WIyWlLk6GJQsqaUBKTNV-1" parent="WIyWlLk6GJQsqaUBKTNV-0" />
        <mxCell id="y5PbMsmPUv0QkU9oSHBO-17" value="" style="edgeStyle=orthogonalEdgeStyle;rounded=0;orthogonalLoop=1;jettySize=auto;html=1;" edge="1" parent="WIyWlLk6GJQsqaUBKTNV-1" source="y5PbMsmPUv0QkU9oSHBO-11" target="y5PbMsmPUv0QkU9oSHBO-16">
          <mxGeometry relative="1" as="geometry" />
        </mxCell>
        <mxCell id="y5PbMsmPUv0QkU9oSHBO-11" value="" style="rounded=1;whiteSpace=wrap;html=1;" vertex="1" parent="WIyWlLk6GJQsqaUBKTNV-1">
          <mxGeometry x="210" y="170" width="580" height="130" as="geometry" />
        </mxCell>
        <mxCell id="y5PbMsmPUv0QkU9oSHBO-5" value="" style="edgeStyle=orthogonalEdgeStyle;rounded=0;orthogonalLoop=1;jettySize=auto;html=1;" edge="1" parent="WIyWlLk6GJQsqaUBKTNV-1" source="y5PbMsmPUv0QkU9oSHBO-3" target="y5PbMsmPUv0QkU9oSHBO-4">
          <mxGeometry relative="1" as="geometry" />
        </mxCell>
        <mxCell id="y5PbMsmPUv0QkU9oSHBO-3" value="9:00AM START" style="ellipse;whiteSpace=wrap;html=1;aspect=fixed;" vertex="1" parent="WIyWlLk6GJQsqaUBKTNV-1">
          <mxGeometry x="40" y="190" width="80" height="80" as="geometry" />
        </mxCell>
        <mxCell id="y5PbMsmPUv0QkU9oSHBO-7" value="" style="edgeStyle=orthogonalEdgeStyle;rounded=0;orthogonalLoop=1;jettySize=auto;html=1;" edge="1" parent="WIyWlLk6GJQsqaUBKTNV-1" source="y5PbMsmPUv0QkU9oSHBO-4" target="y5PbMsmPUv0QkU9oSHBO-6">
          <mxGeometry relative="1" as="geometry" />
        </mxCell>
        <mxCell id="y5PbMsmPUv0QkU9oSHBO-4" value="业务巡检" style="whiteSpace=wrap;html=1;" vertex="1" parent="WIyWlLk6GJQsqaUBKTNV-1">
          <mxGeometry x="250" y="200" width="120" height="60" as="geometry" />
        </mxCell>
        <mxCell id="y5PbMsmPUv0QkU9oSHBO-9" value="" style="edgeStyle=orthogonalEdgeStyle;rounded=0;orthogonalLoop=1;jettySize=auto;html=1;" edge="1" parent="WIyWlLk6GJQsqaUBKTNV-1" source="y5PbMsmPUv0QkU9oSHBO-6" target="y5PbMsmPUv0QkU9oSHBO-8">
          <mxGeometry relative="1" as="geometry" />
        </mxCell>
        <mxCell id="y5PbMsmPUv0QkU9oSHBO-6" value="应用巡检" style="whiteSpace=wrap;html=1;" vertex="1" parent="WIyWlLk6GJQsqaUBKTNV-1">
          <mxGeometry x="450" y="200" width="120" height="60" as="geometry" />
        </mxCell>
        <mxCell id="y5PbMsmPUv0QkU9oSHBO-8" value="基础资源巡检" style="whiteSpace=wrap;html=1;" vertex="1" parent="WIyWlLk6GJQsqaUBKTNV-1">
          <mxGeometry x="650" y="200" width="120" height="60" as="geometry" />
        </mxCell>
        <mxCell id="y5PbMsmPUv0QkU9oSHBO-21" value="" style="edgeStyle=orthogonalEdgeStyle;rounded=0;orthogonalLoop=1;jettySize=auto;html=1;" edge="1" parent="WIyWlLk6GJQsqaUBKTNV-1" source="y5PbMsmPUv0QkU9oSHBO-16" target="y5PbMsmPUv0QkU9oSHBO-20">
          <mxGeometry relative="1" as="geometry" />
        </mxCell>
        <mxCell id="y5PbMsmPUv0QkU9oSHBO-32" value="NO" style="edgeLabel;html=1;align=center;verticalAlign=middle;resizable=0;points=[];" vertex="1" connectable="0" parent="y5PbMsmPUv0QkU9oSHBO-21">
          <mxGeometry x="-0.2222" relative="1" as="geometry">
            <mxPoint as="offset" />
          </mxGeometry>
        </mxCell>
        <mxCell id="y5PbMsmPUv0QkU9oSHBO-25" value="" style="edgeStyle=orthogonalEdgeStyle;rounded=0;orthogonalLoop=1;jettySize=auto;html=1;" edge="1" parent="WIyWlLk6GJQsqaUBKTNV-1" source="y5PbMsmPUv0QkU9oSHBO-16" target="y5PbMsmPUv0QkU9oSHBO-24">
          <mxGeometry relative="1" as="geometry" />
        </mxCell>
        <mxCell id="y5PbMsmPUv0QkU9oSHBO-31" value="YES" style="edgeLabel;html=1;align=center;verticalAlign=middle;resizable=0;points=[];" vertex="1" connectable="0" parent="y5PbMsmPUv0QkU9oSHBO-25">
          <mxGeometry x="-0.175" y="3" relative="1" as="geometry">
            <mxPoint as="offset" />
          </mxGeometry>
        </mxCell>
        <mxCell id="y5PbMsmPUv0QkU9oSHBO-16" value="是否异常" style="rhombus;whiteSpace=wrap;html=1;rounded=1;" vertex="1" parent="WIyWlLk6GJQsqaUBKTNV-1">
          <mxGeometry x="460" y="412.5" width="80" height="80" as="geometry" />
        </mxCell>
        <mxCell id="y5PbMsmPUv0QkU9oSHBO-23" value="" style="edgeStyle=orthogonalEdgeStyle;rounded=0;orthogonalLoop=1;jettySize=auto;html=1;" edge="1" parent="WIyWlLk6GJQsqaUBKTNV-1" source="y5PbMsmPUv0QkU9oSHBO-20" target="y5PbMsmPUv0QkU9oSHBO-22">
          <mxGeometry relative="1" as="geometry" />
        </mxCell>
        <mxCell id="y5PbMsmPUv0QkU9oSHBO-20" value="填写巡检记录" style="whiteSpace=wrap;html=1;rounded=1;" vertex="1" parent="WIyWlLk6GJQsqaUBKTNV-1">
          <mxGeometry x="440" y="582.5" width="120" height="60" as="geometry" />
        </mxCell>
        <mxCell id="y5PbMsmPUv0QkU9oSHBO-22" value="发送邮件" style="whiteSpace=wrap;html=1;rounded=1;" vertex="1" parent="WIyWlLk6GJQsqaUBKTNV-1">
          <mxGeometry x="440" y="722.5" width="120" height="60" as="geometry" />
        </mxCell>
        <mxCell id="y5PbMsmPUv0QkU9oSHBO-27" value="" style="edgeStyle=orthogonalEdgeStyle;rounded=0;orthogonalLoop=1;jettySize=auto;html=1;" edge="1" parent="WIyWlLk6GJQsqaUBKTNV-1" source="y5PbMsmPUv0QkU9oSHBO-24" target="y5PbMsmPUv0QkU9oSHBO-26">
          <mxGeometry relative="1" as="geometry" />
        </mxCell>
        <mxCell id="y5PbMsmPUv0QkU9oSHBO-28" value="YES" style="edgeLabel;html=1;align=center;verticalAlign=middle;resizable=0;points=[];" vertex="1" connectable="0" parent="y5PbMsmPUv0QkU9oSHBO-27">
          <mxGeometry x="-0.1667" y="-2" relative="1" as="geometry">
            <mxPoint as="offset" />
          </mxGeometry>
        </mxCell>
        <mxCell id="y5PbMsmPUv0QkU9oSHBO-29" style="edgeStyle=orthogonalEdgeStyle;rounded=0;orthogonalLoop=1;jettySize=auto;html=1;entryX=1;entryY=0.5;entryDx=0;entryDy=0;" edge="1" parent="WIyWlLk6GJQsqaUBKTNV-1" source="y5PbMsmPUv0QkU9oSHBO-24" target="y5PbMsmPUv0QkU9oSHBO-20">
          <mxGeometry relative="1" as="geometry">
            <Array as="points">
              <mxPoint x="660" y="613" />
            </Array>
          </mxGeometry>
        </mxCell>
        <mxCell id="y5PbMsmPUv0QkU9oSHBO-30" value="潜在问题" style="edgeLabel;html=1;align=center;verticalAlign=middle;resizable=0;points=[];" vertex="1" connectable="0" parent="y5PbMsmPUv0QkU9oSHBO-29">
          <mxGeometry x="-0.5727" y="-1" relative="1" as="geometry">
            <mxPoint as="offset" />
          </mxGeometry>
        </mxCell>
        <mxCell id="y5PbMsmPUv0QkU9oSHBO-24" value="是否影响业务" style="rhombus;whiteSpace=wrap;html=1;rounded=1;" vertex="1" parent="WIyWlLk6GJQsqaUBKTNV-1">
          <mxGeometry x="620" y="412.5" width="80" height="80" as="geometry" />
        </mxCell>
        <mxCell id="y5PbMsmPUv0QkU9oSHBO-26" value="联系业务负责人&amp;nbsp;" style="whiteSpace=wrap;html=1;rounded=1;" vertex="1" parent="WIyWlLk6GJQsqaUBKTNV-1">
          <mxGeometry x="760" y="422.5" width="120" height="60" as="geometry" />
        </mxCell>
      </root>
    </mxGraphModel>
  </diagram>
</mxfile>
